<svg width="26" height="26" viewBox="0 0 26 26" fill="none" xmlns="http://www.w3.org/2000/svg">
<path d="M23.8334 24.6459H2.16669C1.72252 24.6459 1.35419 24.2775 1.35419 23.8334C1.35419 23.3892 1.72252 23.0209 2.16669 23.0209H23.8334C24.2775 23.0209 24.6459 23.3892 24.6459 23.8334C24.6459 24.2775 24.2775 24.6459 23.8334 24.6459Z" fill="#101219"/>
<path d="M22.6308 24.6459C22.1866 24.6459 21.8183 24.2775 21.8183 23.8334V14.0834C21.8183 12.74 20.5616 11.6459 19.0233 11.6459H6.97664C5.43831 11.6459 4.18164 12.74 4.18164 14.0834V23.8334C4.18164 24.2775 3.81331 24.6459 3.36914 24.6459C2.92497 24.6459 2.55664 24.2775 2.55664 23.8334V14.0834C2.55664 11.8409 4.53914 10.0209 6.97664 10.0209H19.0125C21.45 10.0209 23.4325 11.8409 23.4325 14.0834V23.8334C23.4433 24.2775 23.075 24.6459 22.6308 24.6459Z" fill="#101219"/>
<path d="M19.9767 11.6458C19.5325 11.6458 19.1642 11.2775 19.1642 10.8333V7.76746C19.1642 6.92246 18.3517 6.22913 17.3658 6.22913H8.64498C7.64832 6.22913 6.84665 6.92246 6.84665 7.76746V10.8333C6.84665 11.2775 6.47832 11.6458 6.03415 11.6458C5.58998 11.6458 5.21082 11.2775 5.21082 10.8333V7.76746C5.21082 6.02329 6.74915 4.60413 8.63415 4.60413H17.355C19.24 4.60413 20.7783 6.02329 20.7783 7.76746V10.8333C20.7892 11.2775 20.4208 11.6458 19.9767 11.6458Z" fill="#101219"/>
<path d="M18.7742 19.2292C17.5175 19.2292 16.4992 18.2108 16.4992 16.9542V16.6183C16.4992 16.2608 16.2067 15.9683 15.8492 15.9683C15.4917 15.9683 15.1992 16.2608 15.1992 16.6183V16.9542C15.1992 18.2108 14.1808 19.2292 12.9242 19.2292C11.6675 19.2292 10.6492 18.2108 10.6492 16.9542V16.6183C10.6492 16.2608 10.3567 15.9683 9.99917 15.9683C9.64167 15.9683 9.34917 16.2608 9.34917 16.6183V16.9542C9.34917 18.2108 8.33084 19.2292 7.07417 19.2292C5.81751 19.2292 4.79917 18.2108 4.79917 16.9542V16.5967C4.79917 16.25 4.51751 15.9575 4.16001 15.9467H3.75918C3.31501 15.9358 2.94668 15.5675 2.95751 15.1233C2.96834 14.6792 3.32584 14.3217 3.77001 14.3217H3.78084H4.18167C5.41667 14.3433 6.42417 15.3617 6.42417 16.5967V16.9542C6.42417 17.3117 6.71668 17.6042 7.07417 17.6042C7.43167 17.6042 7.72417 17.3117 7.72417 16.9542V16.6183C7.72417 15.3617 8.74251 14.3433 9.99917 14.3433C11.2558 14.3433 12.2742 15.3617 12.2742 16.6183V16.9542C12.2742 17.3117 12.5667 17.6042 12.9242 17.6042C13.2817 17.6042 13.5742 17.3117 13.5742 16.9542V16.6183C13.5742 15.3617 14.5925 14.3433 15.8492 14.3433C17.1058 14.3433 18.1242 15.3617 18.1242 16.6183V16.9542C18.1242 17.3117 18.4167 17.6042 18.7742 17.6042C19.1317 17.6042 19.4242 17.3117 19.4242 16.9542V16.6183C19.4242 15.3617 20.4425 14.3433 21.6992 14.3433H22.1867C22.6308 14.3433 22.9992 14.7117 22.9992 15.1558C22.9992 15.6 22.6308 15.9683 22.1867 15.9683H21.6992C21.3417 15.9683 21.0492 16.2608 21.0492 16.6183V16.9542C21.0492 18.2108 20.0308 19.2292 18.7742 19.2292Z" fill="#101219"/>
<path d="M8.66669 6.22917C8.22252 6.22917 7.85419 5.86083 7.85419 5.41667V3.25C7.85419 2.80583 8.22252 2.4375 8.66669 2.4375C9.11085 2.4375 9.47919 2.80583 9.47919 3.25V5.41667C9.47919 5.86083 9.11085 6.22917 8.66669 6.22917Z" fill="#101219"/>
<path d="M17.3333 6.22917C16.8891 6.22917 16.5208 5.86083 16.5208 5.41667V3.25C16.5208 2.80583 16.8891 2.4375 17.3333 2.4375C17.7775 2.4375 18.1458 2.80583 18.1458 3.25V5.41667C18.1458 5.86083 17.7775 6.22917 17.3333 6.22917Z" fill="#101219"/>
<path d="M13 6.22913C12.5558 6.22913 12.1875 5.86079 12.1875 5.41663V2.16663C12.1875 1.72246 12.5558 1.35413 13 1.35413C13.4442 1.35413 13.8125 1.72246 13.8125 2.16663V5.41663C13.8125 5.86079 13.4442 6.22913 13 6.22913Z" fill="#101219"/>
</svg>
