<svg width="26" height="26" viewBox="0 0 26 26" fill="none" xmlns="http://www.w3.org/2000/svg">
<path d="M10.9092 3.05499L3.40167 9.06748C2.55667 9.73915 2.015 11.1584 2.19917 12.22L3.64 20.8433C3.9 22.3816 5.37333 23.6275 6.93333 23.6275H19.0667C20.6158 23.6275 22.1 22.3708 22.36 20.8433L23.8008 12.22C23.9742 11.1584 23.4325 9.73915 22.5983 9.06748L15.0908 3.06584C13.9317 2.13417 12.0575 2.13416 10.9092 3.05499Z" stroke="#101219" stroke-width="1.5" stroke-linecap="round" stroke-linejoin="round"/>
<path d="M13 16.7917C14.4958 16.7917 15.7084 15.5791 15.7084 14.0833C15.7084 12.5876 14.4958 11.375 13 11.375C11.5042 11.375 10.2917 12.5876 10.2917 14.0833C10.2917 15.5791 11.5042 16.7917 13 16.7917Z" stroke="#101219" stroke-width="1.5" stroke-linecap="round" stroke-linejoin="round"/>
</svg>
