<svg width="22" height="27" viewBox="0 0 22 27" fill="none" xmlns="http://www.w3.org/2000/svg">
<path fill-rule="evenodd" clip-rule="evenodd" d="M8.10003 3.50758C8.31567 3.29867 8.76979 3.03652 9.46014 2.79964C10.1322 2.56905 10.9666 2.38331 11.8824 2.28828C13.7247 2.09709 15.8102 2.28111 17.5153 3.11445C18.719 3.70272 19.533 4.63791 19.6729 5.47913C19.7384 5.87311 19.6655 6.27926 19.3731 6.69114C19.07 7.11797 18.5069 7.58213 17.5421 8.0042C17.1879 8.15916 17.0264 8.5719 17.1814 8.92609C17.3363 9.28027 17.7491 9.44178 18.1033 9.28682C18.7982 8.9828 19.3724 8.63452 19.8264 8.24564C19.8274 8.33683 19.8192 8.43822 19.7979 8.54914C19.7174 8.96811 19.4546 9.45065 18.8976 9.82201L18.8763 9.83619L18.8561 9.8519C18.3938 10.2115 17.6552 10.5038 16.7081 10.7007C15.7743 10.895 14.6986 10.9842 13.6164 10.9807C12.5353 10.9771 11.4659 10.8811 10.5482 10.7135C9.61461 10.543 8.89631 10.3088 8.47764 10.0614C8.40047 10.0158 8.32654 9.97246 8.25573 9.93093L8.2555 9.93079C7.74368 9.63055 7.3949 9.42595 7.16373 9.16535C7.0516 9.03895 6.98558 8.9153 6.95415 8.77368C6.93335 8.67993 6.92372 8.55999 6.9399 8.40433C8.50907 9.96195 11.3308 10.6348 15.0707 10.3231C15.456 10.291 15.7423 9.95267 15.7102 9.5674C15.6781 9.18214 15.3397 8.89585 14.9545 8.92795C10.3409 9.31242 7.97163 8.08801 7.24439 6.41866C6.98734 5.82861 7.06749 4.50786 8.10003 3.50758L7.61297 3.00481L8.10003 3.50758ZM21.0539 5.24952C21.1476 5.81299 21.084 6.38825 20.8376 6.9392C21.2045 7.45279 21.2981 8.1606 21.1728 8.81318C21.1009 9.18742 20.9549 9.56688 20.7275 9.92445C21.0132 10.3216 21.336 11.0527 21.2042 11.8845C21.0634 12.7726 20.4366 13.5904 19.167 14.1589C16.7937 15.2217 12.752 15.8014 8.67907 14.4438C7.91256 14.1883 6.94553 13.7187 6.28739 13.0167C5.95176 12.6587 5.67057 12.2121 5.56851 11.6784C5.46418 11.1329 5.56015 10.5636 5.86773 9.99848C5.8907 9.95628 5.91739 9.91739 5.94715 9.88198C5.78355 9.65184 5.65602 9.3862 5.5874 9.07698C5.49762 8.67237 5.51842 8.23721 5.63569 7.76812C5.6684 7.6373 5.69655 7.48402 5.7285 7.3101L5.7285 7.31009L5.7285 7.31007C5.74103 7.24187 5.75414 7.17049 5.76834 7.09606C5.7914 6.97512 5.81779 6.84509 5.84822 6.72902L5.85723 6.69533C5.49698 5.51175 5.82123 3.76595 7.12592 2.50204C7.55937 2.08214 8.24116 1.73779 9.00577 1.47543C9.78871 1.20678 10.7283 1.00053 11.7378 0.895761C13.7461 0.687357 16.1164 0.872512 18.1301 1.85663C19.5473 2.54929 20.8105 3.78534 21.0539 5.24952ZM7.02173 10.8245C6.92127 11.0643 6.91332 11.2571 6.94359 11.4154C6.98244 11.6186 7.09836 11.8347 7.30874 12.0591C7.74261 12.5219 8.46322 12.8961 9.12179 13.1156C12.8437 14.3563 16.5235 13.8088 18.5949 12.8812C19.5477 12.4545 19.7725 11.9742 19.8214 11.6653C19.8618 11.4106 19.8014 11.1562 19.714 10.96C19.7078 10.9642 19.7016 10.9685 19.6953 10.9727C18.9909 11.5128 18.0208 11.8577 16.9932 12.0714C15.9424 12.29 14.7664 12.3845 13.6118 12.3807C12.4563 12.3769 11.3038 12.2746 10.2966 12.0907C9.30531 11.9097 8.39569 11.6392 7.76542 11.2667C7.69908 11.2275 7.63002 11.1874 7.55908 11.1462L7.55907 11.1462C7.38702 11.0463 7.20391 10.94 7.02173 10.8245Z" fill="black"/>
<path d="M6.56099 12.5C4.20107 13.7717 0.420824 16.959 1.36719 20.094C1.64813 20.6907 2.03746 21.0864 2.49676 21.3458M6.56096 21.7496C5.16234 21.7993 3.62022 21.9803 2.49676 21.3458M8.68022 21.1447C10.3204 20.479 13.9202 18.2135 15.1979 14.477M15.4467 14.89C15.9231 15.187 16.4678 15.968 16.027 17.1894M14.7848 19.0517C15.449 18.3483 15.8332 17.7263 16.027 17.1894M16.027 17.1894C16.6811 17.3615 17.3053 17.9797 17.2335 19.1324C17.0236 22.4993 11.1272 25.6491 8.34322 26.1268C7.02368 26.3532 4.8 26.145 4.98882 24.3969M2.49676 21.3458C2.16171 22.3244 2.30598 24.2545 5.56353 24.1459C7.62352 24.0772 10.5202 23.7694 13.2808 20.8915" stroke="black" stroke-width="1.4" stroke-linecap="round" stroke-linejoin="round"/>
</svg>
